<svg width="75" height="40" viewBox="0 0 75 40" fill="none" xmlns="http://www.w3.org/2000/svg">
<path d="M0.72406 25.0566H72.9716V34.3371H0.72406V25.0566Z" fill="#696A70"/>
<path d="M23.2841 35.3917C23.3366 35.0464 23.3666 34.6974 23.3666 34.3372H53.2916C53.2916 34.7274 53.3253 35.1102 53.3853 35.478C53.4528 35.8608 53.1528 36.2135 52.7628 36.2135H23.9928C23.5578 36.221 23.2203 35.827 23.2841 35.3917Z" fill="#696A70"/>
<path d="M9.77656 34.3409C9.77656 34.6974 9.80656 35.0464 9.85906 35.3842C9.92656 35.8232 9.58531 36.2173 9.14281 36.2173H1.42156L0.00405884 34.3409H9.77656Z" fill="#696A70"/>
<path d="M66.8853 34.3409H74.4041L73.3091 36.221H67.5116C67.0728 36.221 66.7353 35.8307 66.8028 35.3992C66.8553 35.0502 66.8853 34.6974 66.8853 34.3409Z" fill="#696A70"/>
<path d="M74.4191 33.7142H74.7078L75.0003 32.4233V25.432L74.7078 24.5276H74.4191V33.7142Z" fill="#696A70"/>
<path d="M58.6241 1.41101V0.525378C58.6241 0.23642 58.3916 0 58.0991 0H47.6516C47.3628 0 47.1266 0.232667 47.1266 0.525378V1.41101H58.6241Z" fill="#696A70"/>
<path d="M10.9203 1.41101H21.889V0.577915C21.889 0.258936 21.6303 0 21.3115 0H11.4978C11.179 0 10.9203 0.258936 10.9203 0.577915V1.41101Z" fill="#696A70"/>
<path d="M74.4005 22.4326L72.5968 3.98438C72.4543 2.52833 71.0061 1.40625 69.2736 1.40625H4.67984C2.74885 1.40638 1.15935 2.68586 1.06168 4.31055L0.000152588 22.4326V34.3398H9.78043C9.78047 30.5872 12.8216 27.54 16.5753 27.54C20.3252 27.5401 23.3702 30.5835 23.3703 34.3398H53.2951C53.2951 30.5835 56.3363 27.5363 60.0861 27.5361C63.836 27.5361 66.8809 30.5796 66.881 34.3359H74.4005V22.4326Z" fill="#047BB6"/>
<path d="M71.8823 25.2459L73.4273 27.1485C73.5473 27.2949 73.6185 27.475 73.6335 27.6626L74.0085 32.1508C74.0535 32.6725 73.641 33.1228 73.116 33.1228H72.1523C71.5035 33.1228 70.9785 32.5974 70.9785 31.9482V25.5686C70.9785 25.0845 71.5785 24.8706 71.8823 25.2459Z" fill="#EFE5BB"/>
<path d="M71.8819 25.246L71.9719 25.3586C71.8706 27.2387 71.7281 30.7625 72.0394 31.2841C72.3656 31.8208 73.0106 32.4662 73.8244 32.774C73.6631 32.9841 73.4081 33.1192 73.1156 33.1192H72.1519C71.5031 33.1192 70.9781 32.5938 70.9781 31.9446V25.565C70.9781 25.0847 71.5781 24.8708 71.8819 25.246Z" fill="#D8C884"/>
<path d="M72.9739 31.7211C72.597 31.7211 72.2914 31.1784 72.2914 30.509C72.2914 29.8396 72.597 29.2969 72.9739 29.2969C73.3508 29.2969 73.6564 29.8396 73.6564 30.509C73.6564 31.1784 73.3508 31.7211 72.9739 31.7211Z" fill="#EEF2F8"/>
<path d="M72.5641 28.9642C72.3383 28.9642 72.1553 28.6399 72.1553 28.2399C72.1553 27.8399 72.3383 27.5156 72.5641 27.5156C72.7898 27.5156 72.9728 27.8399 72.9728 28.2399C72.9728 28.6399 72.7898 28.9642 72.5641 28.9642Z" fill="#CCB693"/>
<path d="M72.742 5.47678L74.2345 20.7127H73.312C72.9333 20.7127 72.6258 20.42 72.5995 20.0447L71.7108 6.13725C71.6845 5.76573 71.9845 5.45426 72.3558 5.46927L72.742 5.47678Z" fill="#E6F2F8"/>
<path d="M69.9238 7.48404L70.6775 19.5189C70.7188 20.1682 70.205 20.7161 69.5488 20.7161H66.1663C65.8888 20.7161 65.6263 20.6147 65.42 20.4346L62.765 18.0892C62.5213 17.8753 62.3825 17.5638 62.3825 17.2448V7.55534C62.3825 6.9324 62.8888 6.42578 63.5113 6.42578H68.795C69.3913 6.42578 69.8863 6.89112 69.9238 7.48404Z" fill="#E6F2F8"/>
<path d="M50.2362 18.0102H56.8025C57.4437 18.0102 57.965 17.4923 57.965 16.8469V7.58521C57.965 6.9435 57.4437 6.42188 56.8025 6.42188H50.2362C49.595 6.42188 49.0737 6.93975 49.0737 7.58521V16.8431C49.0737 17.4886 49.595 18.0102 50.2362 18.0102Z" fill="#E6F2F8"/>
<path d="M39.4566 18.0102H45.9103C46.5853 18.0102 47.1291 17.4661 47.1291 16.7906V7.6415C47.1291 6.96602 46.5853 6.42188 45.9103 6.42188H39.4566C38.7816 6.42188 38.2378 6.96602 38.2378 7.6415V16.7868C38.2378 17.4623 38.7816 18.0102 39.4566 18.0102Z" fill="#E6F2F8"/>
<path d="M28.5684 18.0102H35.1384C35.7797 18.0102 36.3009 17.4923 36.3009 16.8469V7.58521C36.3009 6.9435 35.7834 6.42188 35.1384 6.42188H28.5684C27.9272 6.42188 27.4059 6.93975 27.4059 7.58521V16.8431C27.4059 17.4886 27.9272 18.0102 28.5684 18.0102Z" fill="#E6F2F8"/>
<path d="M17.7886 18.0102H24.2423C24.9136 18.0102 25.4611 17.4661 25.4611 16.7906V7.6415C25.4611 6.96602 24.9136 6.42188 24.2423 6.42188H17.7886C17.1173 6.42188 16.5698 6.96602 16.5698 7.6415V16.7868C16.5698 17.4623 17.1136 18.0102 17.7886 18.0102Z" fill="#E6F2F8"/>
<path d="M6.90047 18.0102H13.4705C14.1117 18.0102 14.633 17.4923 14.633 16.8469V7.58521C14.633 6.9435 14.1155 6.42188 13.4705 6.42188H6.90047C6.25922 6.42188 5.73797 6.93975 5.73797 7.58521V16.8431C5.73797 17.4886 6.25547 18.0102 6.90047 18.0102Z" fill="#E6F2F8"/>
<path d="M0.10224 20.7143H0.687244C1.11474 20.7143 1.47099 20.3765 1.48974 19.945L2.09724 6.10877C2.11224 5.74476 1.82724 5.44079 1.46724 5.43329L1.00599 5.42578L0.10224 20.7143Z" fill="#E6F2F8"/>
<path d="M0.358122 28.6773V25.1948C0.358122 24.6057 0.834374 24.1328 1.41937 24.1328C2.00812 24.1328 2.48062 24.6094 2.48062 25.1948V28.6773H0.358122Z" fill="#A31200"/>
<path d="M2.48062 31.2462C2.48062 31.8354 2.00437 32.3082 1.41937 32.3082C0.830624 32.3082 0.358122 31.8316 0.358122 31.2462V28.6719H2.48062V31.2462Z" fill="#F79237"/>
<path d="M60.0919 39.9978C56.9687 39.9978 54.4369 37.4642 54.4369 34.3388C54.4369 31.2133 56.9687 28.6797 60.0919 28.6797C63.215 28.6797 65.7469 31.2133 65.7469 34.3388C65.7469 37.4642 63.215 39.9978 60.0919 39.9978Z" fill="#2D2929"/>
<path d="M16.5731 39.9978C13.45 39.9978 10.9181 37.4642 10.9181 34.3388C10.9181 31.2133 13.45 28.6797 16.5731 28.6797C19.6963 28.6797 22.2281 31.2133 22.2281 34.3388C22.2281 37.4642 19.6963 39.9978 16.5731 39.9978Z" fill="#2D2929"/>
<path d="M60.09 36.8567C58.7024 36.8567 57.5775 35.731 57.5775 34.3424C57.5775 32.9538 58.7024 31.8281 60.09 31.8281C61.4776 31.8281 62.6025 32.9538 62.6025 34.3424C62.6025 35.731 61.4776 36.8567 60.09 36.8567Z" fill="#696A70"/>
<path d="M16.5712 36.8567C15.1836 36.8567 14.0587 35.731 14.0587 34.3424C14.0587 32.9538 15.1836 31.8281 16.5712 31.8281C17.9589 31.8281 19.0837 32.9538 19.0837 34.3424C19.0837 35.731 17.9589 36.8567 16.5712 36.8567Z" fill="#696A70"/>
<path d="M60.0891 35.9395C59.2068 35.9395 58.4916 35.2237 58.4916 34.3408C58.4916 33.4579 59.2068 32.7422 60.0891 32.7422C60.9713 32.7422 61.6866 33.4579 61.6866 34.3408C61.6866 35.2237 60.9713 35.9395 60.0891 35.9395Z" fill="#EEF2F8"/>
<path d="M16.5703 35.9395C15.688 35.9395 14.9728 35.2237 14.9728 34.3408C14.9728 33.4579 15.688 32.7422 16.5703 32.7422C17.4526 32.7422 18.1678 33.4579 18.1678 34.3408C18.1678 35.2237 17.4526 35.9395 16.5703 35.9395Z" fill="#EEF2F8"/>
<path d="M62.382 10.8086L68.1271 18.3633C68.1271 18.3633 68.551 18.6932 68.9035 18.3633C69.256 18.0293 68.9035 17.5859 68.9035 17.5859L62.382 9.08984V10.8086Z" fill="#C1DEED"/>
<path d="M16.5724 16.791C16.5726 17.4663 17.12 18.0107 17.7912 18.0107H19.7521L16.5724 14.7529V16.791Z" fill="#C1DEED"/>
<path d="M50.2365 6.42188C49.5916 6.42188 49.0735 6.94336 49.0734 7.58496V8.86133L56.675 18.0098H56.8019C57.4432 18.0098 57.965 17.4884 57.965 16.8467V13.7773L51.5334 6.42578V6.42188H50.2365Z" fill="#C1DEED"/>
<path d="M49.0695 16.8467C49.0695 17.4921 49.5913 18.0098 50.2326 18.0098H51.6877L49.0695 14.7646V16.8467Z" fill="#C1DEED"/>
<path d="M38.2394 16.79C38.2394 17.4654 38.7834 18.0095 39.4582 18.0098H41.9826L38.2394 13.9043V16.79Z" fill="#C1DEED"/>
<path d="M6.90152 6.42969C6.25652 6.42969 5.73844 6.95106 5.73843 7.59277V9.22559L14.424 17.5078C14.5552 17.3202 14.63 17.0908 14.63 16.8506V13.3379L7.28336 6.42969H6.90152Z" fill="#C1DEED"/>
<path d="M28.5685 6.42578C27.9273 6.42585 27.4064 6.9472 27.4064 7.58887V7.65625L36.1134 17.4775C36.2297 17.2974 36.297 17.0793 36.297 16.8467V14.2119L29.4425 6.42578H28.5685Z" fill="#C1DEED"/>
<path d="M63.5148 6.42969C63.4436 6.42969 63.3722 6.43699 63.3009 6.44824L70.4562 15.9688L70.2648 12.9219L65.3185 6.42969H63.5148Z" fill="#C1DEED"/>
<path d="M47.131 15.3682V13.3525L41.2433 6.42578H39.5041L47.131 15.3682Z" fill="#C1DEED"/>
<path d="M71.3611 15.1268C70.9779 15.1268 70.6673 14.816 70.6673 14.4325C70.6673 14.0491 70.9779 13.7383 71.3611 13.7383C71.7442 13.7383 72.0548 14.0491 72.0548 14.4325C72.0548 14.816 71.7442 15.1268 71.3611 15.1268Z" fill="#4F515B"/>
<path d="M70.68 12.3086C70.68 12.3086 71.61 13.0516 71.64 14.3388C71.64 14.4139 71.67 14.7253 71.3475 14.7103C71.025 14.6953 71.07 14.3238 71.07 14.3238C71.07 14.3238 71.1338 13.6558 70.68 13.3593C70.725 13.3744 70.68 12.3086 70.68 12.3086Z" fill="#2D2929"/>
<path d="M68.8283 15.7243H70.1445C70.5045 15.7243 70.797 15.4316 70.797 15.0676V10.2153C70.797 9.8513 70.5045 9.55859 70.1445 9.55859H68.8283C68.4683 9.55859 68.1758 9.8513 68.1758 10.2153V15.0676C68.1758 15.4316 68.4683 15.7243 68.8283 15.7243Z" fill="#2D2929"/>
</svg>
