<svg width="28" height="61" viewBox="0 0 28 61" fill="none" xmlns="http://www.w3.org/2000/svg">
<g clip-path="url(#clip0_433_384)">
<path d="M16 25H12V57H16V25Z" fill="#A5A5A5"/>
<path d="M28 13.9303C28 6.23755 21.732 0.0119156 14 0.0249224C6.268 0.0379292 -9.4511e-07 6.28465 -6.08851e-07 13.9774C-2.72592e-07 21.6701 6.268 27.8957 14 27.8827C21.732 27.8697 28 21.623 28 13.9303Z" fill="#012333"/>
<path fill-rule="evenodd" clip-rule="evenodd" d="M16.2793 6C16.8881 6.00013 17.3853 6.50067 17.3853 7.11292V7.64087H17.8379C19.0333 7.64097 20 8.61275 20 9.81488V17.5394C19.9999 18.5168 19.357 19.3316 18.4744 19.6068V21.0618C18.4742 21.5785 18.0551 22 17.5413 22H16.6309C16.1171 21.9999 15.6979 21.5785 15.6978 21.0618V19.7134H12.3682V21.0618C12.368 21.5784 11.9495 21.9998 11.4358 22H10.5247C10.0109 21.9999 9.59171 21.5785 9.59155 21.0618V19.629C8.67558 19.3761 8.0001 18.5392 8 17.5394V9.81488C8 8.61281 8.96601 7.64107 10.1614 7.64087H10.458V7.11292C10.458 6.50059 10.955 6 11.564 6H16.2793ZM10.8293 15.9837C10.5323 15.9837 10.2888 16.2285 10.2888 16.5272C10.289 16.8258 10.5324 17.0707 10.8293 17.0707C11.1263 17.0707 11.3697 16.8258 11.3699 16.5272C11.3699 16.2285 11.1264 15.9837 10.8293 15.9837ZM12.6604 16.0326V17.0218H15.3198V16.0326H12.6604ZM17.2139 15.9393C16.9169 15.9394 16.6785 16.1797 16.6785 16.4783C16.6787 16.7769 16.917 17.0166 17.2139 17.0167C17.5108 17.0167 17.7498 16.7769 17.75 16.4783C17.75 16.1796 17.5109 15.9393 17.2139 15.9393ZM10.7224 10.6013V13.6912H17.5259V10.6013H10.7224Z" fill="white"/>
<rect x="6" y="57" width="16" height="4" fill="#C6C6C6"/>
</g>
<defs>
<clipPath id="clip0_433_384">
<rect width="28" height="61" fill="white"/>
</clipPath>
</defs>
</svg>
